<svg width="37" height="39" viewBox="0 0 37 39" fill="none" xmlns="http://www.w3.org/2000/svg">
<path d="M11.8245 22.0094C11.5803 22.358 11.2889 22.7211 10.9493 23.0946C9.75055 24.4127 8.28041 25.4971 7.33158 26.0642L7.17196 26.1595C6.53421 26.5407 6.14062 27.25 6.14062 28.0181V33.1797C6.14062 34.3619 7.05704 35.3203 8.1875 35.3203H28.1445C29.275 35.3203 30.1914 34.3619 30.1914 33.1797V28.0181C30.1914 27.25 29.7978 26.5407 29.1601 26.1595L29.0005 26.0642C28.0516 25.4971 26.5815 24.4127 25.3828 23.0946C25.0431 22.7211 24.7517 22.358 24.5075 22.0094C25.4058 21.7831 26.0733 20.9371 26.0733 19.9282V16.4437C26.0733 15.7481 25.7502 15.096 25.2068 14.6948L24.3375 14.0531C24.8391 13.0338 25.123 11.8771 25.123 10.6522C25.123 6.54249 21.9373 3.21094 18.0076 3.21094C14.0779 3.21094 10.8923 6.54249 10.8923 10.6522C10.8923 11.946 11.2089 13.1634 11.7642 14.2232L11.1252 14.6948C10.5819 15.096 10.2587 15.7481 10.2587 16.4437V19.9282C10.2587 20.9371 10.9262 21.7831 11.8245 22.0094Z" fill="#34364C"/>
<path d="M23.0761 10.6522C23.0761 12.1895 22.4503 13.5739 21.4506 14.5421L24.0264 16.4437V19.9282H21.5048C21.6264 21.5434 22.6173 23.1598 23.8996 24.5698C25.2604 26.0661 26.8976 27.273 27.9849 27.9227L28.1445 28.0181V33.1797H8.1875V28.0181L8.34711 27.9227C9.43441 27.273 11.0716 26.0661 12.4325 24.5698C13.7147 23.1598 14.7057 21.5434 14.8273 19.9282H12.3056V16.4437L14.7046 14.6727C13.6237 13.7006 12.9392 12.26 12.9392 10.6522C12.9392 7.72472 15.2084 5.35156 18.0076 5.35156C20.8069 5.35156 23.0761 7.72472 23.0761 10.6522Z" fill="#F4F7FA"/>
</svg>
